<svg width="336" height="37" viewBox="0 0 336 37" fill="none" xmlns="http://www.w3.org/2000/svg">
<path d="M59.1376 21.7516C58.8062 23.2696 57.8119 24.1708 56.2968 24.1708C55.3499 24.1708 54.4503 23.7914 53.8822 22.8901C53.314 21.9888 53.3614 19.9964 53.3614 19.3323C53.3614 19.3323 53.3614 15.8695 53.4561 15.4425C52.1303 15.3951 50.8994 15.3477 50.0945 15.3477C49.9524 15.8695 49.9998 19.8067 49.9998 19.8067C49.9998 21.7041 50.1418 23.4119 51.2308 24.7875C52.3671 26.2581 54.2136 27.1593 56.2968 27.1593C59.8478 27.1593 62.1205 24.7401 62.5466 21.799H59.1376V21.7516Z" fill="white"/>
<path d="M53.8791 14.1605C53.9738 13.9707 54.6367 12.7848 56.3411 12.7848C57.6195 12.7848 58.5191 13.4489 58.9452 14.54C60.1289 14.6823 61.3599 14.872 62.5435 15.0618C62.1174 12.2156 59.9395 9.84375 56.3411 9.84375C55.0154 9.84375 53.7844 10.1758 52.9322 10.745C51.4644 11.6463 50.7069 12.7374 50.3281 14.0656C51.1804 14.0656 52.4114 14.113 53.8791 14.1605Z" fill="white"/>
<path d="M10.6056 11.5972C9.5166 10.4587 7.90684 9.98438 5.9183 9.98438H0V22.7448C1.08897 22.3179 2.17793 21.8909 3.31425 21.5114V12.9254H5.87093C6.9599 12.9254 7.81214 13.3049 8.33295 13.969C8.9958 14.7755 9.04315 15.487 9.04315 19.7089C10.1321 19.3768 12.3574 18.8076 12.3574 18.8076C12.31 14.728 12.31 13.3998 10.6056 11.5972Z" fill="white"/>
<path d="M31.1096 19.6626C32.4353 19.1883 33.619 18.1447 34.0451 16.4844C31.0623 16.9587 26.4223 17.7177 22.0664 18.9036V27.0153H25.3807V20.2319H27.748L31.0623 27.0153H34.8974L31.1096 19.6626Z" fill="white"/>
<path d="M48.1972 24.0274H40.3377V19.9478H47.0609V19.9004V16.9593H40.3377V15.7734C39.2487 15.8683 38.1598 16.0106 37.0234 16.1055V27.0159H48.1972V24.0274Z" fill="white"/>
<path d="M6.10527 27.016C7.85709 27.016 9.46687 26.4942 10.6032 25.4031C11.5975 24.407 12.0236 23.2685 12.213 22.0352C8.18853 23.5531 4.54284 25.2608 1.41797 27.0634H6.10527V27.016Z" fill="white"/>
<path d="M15.3906 27.0145H18.7048V19.8516C17.5685 20.1836 16.4796 20.5157 15.3906 20.8952V27.0145Z" fill="white"/>
<path d="M15.3906 18.096C16.4796 17.8588 17.5685 17.6217 18.7048 17.3845V9.98438H15.3906V18.096Z" fill="white"/>
<path d="M48.1972 9.98438H37.0234V14.6806C38.1124 14.5857 39.2487 14.4908 40.3377 14.396V12.9254H48.1972V9.98438Z" fill="white"/>
<path d="M85.3614 27.018H82.8994L77.3125 9.98828H80.7215L84.1304 21.0884L87.5393 9.98828H90.9957L85.3614 27.018Z" fill="white"/>
<path d="M71.2097 12.9293V27.018H67.8954V12.9293H63.4922V9.98828H75.6603V12.9293H71.2097Z" fill="white"/>
<path d="M25.3299 12.9254H28.4548C29.8752 12.9254 30.8695 13.7319 30.8695 15.3447L34.1838 14.9652C34.0891 12.2139 32.0531 9.98438 28.6915 9.98438H22.0156V16.7204C23.1046 16.5306 24.1936 16.3409 25.3299 16.1511V12.9254Z" fill="white"/>
<line x1="103.246" y1="1" x2="103.246" y2="36" stroke="white" stroke-opacity="0.4" stroke-width="0.5"/>
<g clip-path="url(#clip0_20082_8654)">
<path d="M254.824 32.6241L255.584 29.641L267.898 16.0968H265.241C263.864 16.0968 263.105 16.8907 262.488 18.0454L261.848 19.0558H258.431L260.305 12.9453H276.488L275.752 15.9284L263.414 29.4486H266.285C267.685 29.4486 268.634 28.8231 269.298 27.4999L269.939 26.4895H273.356L271.481 32.6241H254.824Z" fill="white"/>
<path d="M274.852 24.4194C274.852 17.5391 279.55 12.5352 286.193 12.5352C291.105 12.5352 295.162 15.6145 295.162 21.1717C295.162 27.9558 290.607 33.056 283.963 33.056C279.051 33.056 274.852 29.9526 274.852 24.4194ZM289.064 19.4636C289.064 17.5872 288.281 16.2881 286.288 16.2881C282.682 16.2881 281.092 23.6496 281.092 26.1515C281.092 28.028 281.946 29.2549 283.892 29.2549C287.475 29.279 289.064 21.9656 289.064 19.4636Z" fill="white"/>
<path d="M298.197 12.942H306.169L310.322 23.2866L311.982 17.1761C312.243 16.31 312.101 16.0695 311.555 16.0695H310.298L311.152 12.918H318.721L317.891 16.0695H316.633C316.111 16.0695 315.898 16.31 315.66 17.1761L311.532 32.6208H307.427L302.159 19.6299L299.715 28.3868C299.478 29.2528 299.597 29.4453 300.119 29.4453H301.376L300.546 32.6208H292.977L293.807 29.4453H295.041C295.587 29.4453 295.8 29.2288 296.037 28.3868L299.051 17.1761C299.312 16.31 299.17 16.0695 298.624 16.0695H297.366L298.197 12.942Z" fill="white"/>
<path d="M313.979 32.6208L314.762 29.4453H315.782C316.304 29.4453 316.517 29.2288 316.778 28.3868L319.816 17.1761C320.053 16.31 319.91 16.0695 319.388 16.0695H318.368L319.199 12.918H336.022L334.503 18.6917H331.822L331.561 17.4167C331.276 16.2379 330.73 16.0454 329.259 16.0454H326.246L324.846 21.2418H326.103C327.076 21.2418 327.456 20.496 327.646 19.8224L327.859 19.1007H330.588L328.69 26.366H325.961L326.175 25.5961C326.341 24.9466 326.341 24.1046 325.439 24.1046H324.039L322.615 29.4212H326.246C327.741 29.4212 328.168 29.2528 328.903 28.0981L329.663 26.823H332.581L331.086 32.5968H313.979V32.6208Z" fill="white"/>
<path d="M120.332 7.55429L121.068 4.83582H120.142L120.569 3.1037H121.566L122.183 0.746094H125.362L124.746 3.1037H125.861L125.41 4.83582H124.2L123.464 7.434C123.322 7.96326 123.108 8.73309 123.108 9.06989C123.108 9.57509 123.464 9.74349 123.891 9.74349C124.176 9.74349 124.366 9.71944 124.579 9.64726L124.152 11.3313C123.654 11.4997 123.108 11.5718 122.563 11.5718C120.854 11.5718 120 10.8982 120 9.55103C120 8.92555 120.119 8.32412 120.332 7.55429Z" fill="white"/>
<path d="M129.967 4.57087C130.75 3.46424 131.77 2.88687 133.052 2.88687C134.309 2.88687 135.258 3.53641 135.258 4.71522C135.258 6.03836 134.001 8.6606 134.001 9.35826C134.001 9.64694 134.143 9.74317 134.357 9.74317C134.499 9.74317 134.665 9.71912 134.807 9.671L134.38 11.355C133.811 11.5234 133.194 11.5956 132.624 11.5956C131.343 11.5956 130.608 11.1625 130.608 9.91157C130.608 8.80494 131.794 6.25488 131.794 5.53316C131.794 5.1723 131.557 5.0039 131.224 5.0039C130.109 5.0039 129.255 7.31339 128.187 11.355H125.008L127.357 2.57412C127.499 2.09298 127.428 1.94863 127.191 1.94863H126.645L127.096 0.216515H129.136C130.038 0.216515 130.797 0.120286 131.248 0L129.967 4.57087Z" fill="white"/>
<path d="M138.604 7.86656C138.58 8.01091 138.604 8.13119 138.604 8.22742C138.604 9.23782 139.339 9.62274 140.193 9.62274C141.142 9.62274 141.688 9.26188 142.234 8.80479L143.349 10.2001C142.4 11.2105 141.19 11.5954 139.742 11.5954C137.227 11.5954 135.566 10.2963 135.566 8.08308C135.566 5.1481 137.441 2.88672 140.502 2.88672C143.064 2.88672 144.061 4.30609 144.061 6.01416C144.061 6.61559 143.942 7.28919 143.705 7.86656H138.604ZM139.007 6.39907H141.309C141.38 6.13444 141.451 5.8217 141.451 5.55707C141.451 5.02781 141.261 4.66695 140.644 4.66695C139.932 4.66695 139.458 5.02781 139.007 6.39907Z" fill="white"/>
<path d="M141.215 27.7598C141.215 23.213 144.157 18.2812 148.831 18.2812C150.587 18.2812 151.869 19.2676 152.272 20.8794L152.889 18.6662H155.048C156.353 18.6662 157.445 18.5218 158.133 18.3294L155.784 27.3989C155.594 28.0244 155.404 28.5537 155.404 28.8905C155.404 29.4197 155.712 29.5881 156.068 29.5881C156.306 29.5881 156.543 29.54 156.804 29.4438L156.092 32.2344C155.167 32.4509 154.313 32.6193 153.34 32.6193C151.299 32.6193 150.113 31.8255 149.923 30.2858C148.903 31.633 147.432 32.6193 145.676 32.6193C142.9 32.6193 141.215 30.5504 141.215 27.7598ZM151.323 23.1408C151.323 22.1545 150.706 21.529 149.804 21.529C148.001 21.529 146.411 24.8248 146.411 27.6876C146.411 28.7702 147.076 29.3235 147.977 29.3235C149.757 29.3476 151.323 25.8593 151.323 23.1408Z" fill="#006DFF"/>
<path d="M193.56 26.486C193.536 26.7266 193.56 26.919 193.56 27.0874C193.56 28.7714 194.793 29.3729 196.217 29.3729C197.807 29.3729 198.708 28.7714 199.563 28.0257L201.413 30.3111C199.847 31.9951 197.831 32.6447 195.434 32.6447C191.282 32.6447 188.529 30.5036 188.529 26.8228C188.529 21.9873 191.638 18.2344 196.692 18.2344C200.915 18.2344 202.576 20.592 202.576 23.4067C202.576 24.393 202.386 25.4997 201.983 26.4619H193.56V26.486ZM194.2 24.0803H197.997C198.139 23.6472 198.21 23.142 198.21 22.6609C198.21 21.7948 197.878 21.1934 196.881 21.1934C195.766 21.2175 194.983 21.8189 194.2 24.0803Z" fill="#006DFF"/>
<path d="M203.974 25.9802L205.208 21.5056H203.689L204.401 18.6668H206.038L207.058 14.7695H212.278L211.258 18.6668H213.133L212.397 21.5056H210.38L209.17 25.7877C208.957 26.6538 208.577 27.9288 208.577 28.5062C208.577 29.3482 209.146 29.6128 209.858 29.6128C210.333 29.6128 210.641 29.5647 210.997 29.4444L210.285 32.2351C209.455 32.5238 208.577 32.62 207.628 32.62C204.781 32.62 203.404 31.5134 203.404 29.276C203.428 28.2656 203.642 27.2312 203.974 25.9802Z" fill="#006DFF"/>
<path d="M212.564 29.977C212.564 29.1831 213.063 27.7397 213.347 26.5849L214.486 22.5433C214.7 21.7494 214.629 21.5089 214.225 21.5089H213.134L213.869 18.6701H217.334C218.781 18.6701 220.039 18.5258 220.798 18.3333L219.018 24.9491C218.615 26.4406 218.046 28.2449 218.046 28.9666C218.046 29.4478 218.259 29.5921 218.639 29.5921C218.876 29.5921 219.066 29.568 219.351 29.4718L218.639 32.2384C217.713 32.5271 216.93 32.6233 215.934 32.6233C213.798 32.6233 212.564 31.7813 212.564 29.977ZM216.124 15.5186C216.124 14.0752 217.381 12.8242 218.995 12.8242C220.632 12.8242 221.723 13.8106 221.723 15.2059C221.723 16.6493 220.442 17.8522 218.829 17.8522C217.191 17.8522 216.124 16.8899 216.124 15.5186Z" fill="#006DFF"/>
<path d="M228.106 21.3131C229.434 19.3163 231.166 18.2578 233.421 18.2578C235.485 18.2578 237.051 19.3404 237.051 21.265C237.051 23.4542 234.939 27.7604 234.939 28.9392C234.939 29.4204 235.153 29.5647 235.532 29.5647C235.77 29.5647 236.007 29.5166 236.244 29.4204L235.532 32.211C234.607 32.4997 233.587 32.5959 232.638 32.5959C230.502 32.5959 229.316 31.8742 229.316 29.8293C229.316 28.001 231.285 23.791 231.285 22.6122C231.285 22.0348 230.905 21.7221 230.336 21.7221C228.485 21.7221 227.085 25.5471 225.353 32.211H220.109L222.719 22.4919C222.909 21.722 222.838 21.4574 222.411 21.4574H221.343L222.079 18.6187H225.424C226.895 18.6187 228.153 18.4743 228.889 18.2819L228.106 21.3131Z" fill="#006DFF"/>
<path d="M134.453 13.8795L130.443 20.8561C130.253 21.217 130.277 21.65 130.538 21.9628C130.799 22.3236 130.894 22.7807 130.799 23.2378C130.609 24.0557 129.731 24.585 128.924 24.3444C128.118 24.1038 127.643 23.2618 127.88 22.4439C128.023 21.9628 128.379 21.6019 128.806 21.4335C129.185 21.3373 129.446 20.9523 129.446 20.5674L129.375 13.8795H119.837L119.101 16.8145H120.335C120.833 16.8145 120.928 17.031 120.714 17.849L117.867 28.3139C117.654 29.1077 117.44 29.3002 116.942 29.3002H115.779L114.996 32.2352H122.067L122.803 29.2761H121.687C121.189 29.2761 121.118 29.0837 121.308 28.2898L124.084 17.9452L124.155 32.2592H127.714L135.687 18.1858L132.816 28.3139C132.626 29.1077 132.412 29.3002 131.89 29.3002H131.012L130.253 32.2352H139.127L139.863 29.2761H138.914C138.415 29.2761 138.32 29.0837 138.534 28.2898L141.381 17.8249C141.595 17.031 141.808 16.7905 142.307 16.7905H143.256L143.991 13.8555H134.453V13.8795Z" fill="#006DFF"/>
<path d="M169.33 18.2344C168.262 18.2344 167.337 18.6915 166.578 19.4132C166.388 19.5816 166.222 19.7981 166.151 20.0387C166.079 20.2792 166.056 20.5439 166.103 20.8085C166.127 21.2415 165.985 21.6986 165.652 22.0354C165.059 22.6128 164.039 22.5887 163.493 21.9632C162.924 21.3378 162.995 20.3514 163.612 19.774C163.991 19.4372 164.466 19.341 164.917 19.4372C165.107 19.5094 165.32 19.5335 165.51 19.5094C165.771 19.4853 165.985 19.2929 166.056 19.0283L166.246 18.3306C165.486 18.5231 164.229 18.6674 162.781 18.6674H159.317L158.581 21.5062H159.649C160.053 21.5062 160.148 21.7467 159.958 22.5406L157.348 32.2597H162.591L163.754 27.8332C164.988 23.4067 165.866 21.6264 167.503 21.6264C167.835 21.6264 168.215 21.6746 168.381 21.9392C167.479 22.276 166.768 23.1902 166.791 24.1765C166.791 25.4275 167.812 26.077 169.093 26.077C171.276 26.077 172.557 23.6472 172.533 21.458C172.438 19.6056 171.181 18.2344 169.33 18.2344Z" fill="#006DFF"/>
<path d="M186.299 24.0813C187.675 24.0813 188.885 22.8303 188.885 21.026C188.885 19.3179 187.793 18.2594 186.014 18.2594C182.265 18.2594 182.028 23.0468 179.417 23.7685C179.085 23.8648 178.777 24.0813 178.587 24.37C178.54 24.4421 178.492 24.5384 178.445 24.6346C178.231 25.0195 177.851 25.3082 177.401 25.4044C176.57 25.5488 175.763 24.9714 175.621 24.1294C175.502 23.2874 176.072 22.4935 176.902 22.3732C177.401 22.301 177.851 22.4694 178.184 22.8062C178.279 22.9265 178.397 23.0468 178.54 23.143C178.824 23.3355 179.228 23.1911 179.323 22.8303L181.933 13.4961C181.197 13.6886 179.916 13.857 178.445 13.857H175.099L174.387 16.6957H175.265C175.668 16.6957 175.763 16.9122 175.574 17.7302L171.635 32.2367H176.665L178.421 26.1742H178.445C180.224 26.1742 180.011 27.4252 180.011 28.9649C179.963 31.0338 180.604 32.6216 183.76 32.6216C184.922 32.6216 185.729 32.4772 186.56 32.2367L187.248 29.4701C187.01 29.5182 186.654 29.6866 186.275 29.6866C185.326 29.6866 185.421 28.7965 185.349 27.8101C185.278 26.511 184.827 24.8992 182.621 24.2497C183.356 23.6723 183.855 22.9506 184.424 22.3732V22.4213C184.377 23.2874 185.183 24.0813 186.299 24.0813Z" fill="#006DFF"/>
<path d="M251.36 18.6695H249.177L249.011 19.2468C248.892 19.6558 249.177 20.0648 249.604 20.0648C249.652 20.0648 249.723 20.0648 249.77 20.0648C250.197 20.0648 250.648 20.2572 250.933 20.6181C251.479 21.2676 251.384 22.278 250.719 22.8073C250.055 23.3366 249.082 23.2163 248.584 22.5427C248.276 22.1577 248.204 21.6525 248.323 21.1955C248.513 20.7384 248.465 20.2091 248.181 19.7761C247.54 18.886 246.425 18.3086 245.072 18.3086C240.445 18.3086 237.479 22.7351 237.432 27.2338C237.408 29.8079 239.401 31.9971 241.94 31.9971C243.672 31.9971 245.072 31.1792 246.093 29.9763L245.713 31.1551C245.096 33.0557 243.91 33.6571 241.869 33.6571C240.208 33.6571 238.618 33.1519 237.551 32.5986L236.768 35.8463C237.907 36.4477 239.923 37.0251 242.296 37.0251C247.92 37.0251 249.96 35.4133 251.194 30.5297L254.468 18.3567C253.757 18.5251 252.665 18.6695 251.36 18.6695ZM244.313 28.9178C243.269 28.9178 242.628 28.1961 242.628 27.0414C242.605 25.213 243.933 21.5563 245.855 21.5563C246.899 21.5563 247.493 22.3021 247.493 23.4087C247.493 25.213 246.211 28.9178 244.313 28.9178Z" fill="#006DFF"/>
</g>
<defs>
<clipPath id="clip0_20082_8654">
<rect width="221" height="37" fill="white" transform="translate(114.996)"/>
</clipPath>
</defs>
</svg>
